<?xml version="1.0" encoding="iso-8859-1"?>
<!-- Generator: Adobe Illustrator 19.0.0, SVG Export Plug-In . SVG Version: 6.00 Build 0)  -->
<svg version="1.1" id="Capa_1" xmlns="http://www.w3.org/2000/svg" xmlns:xlink="http://www.w3.org/1999/xlink" x="0px" y="0px"
	 viewBox="0 0 457.756 457.756" style="enable-background:new 0 0 457.756 457.756;" xml:space="preserve">
<path d="M455.413,35.596c-3.125-3.123-8.189-3.123-11.314,0L290.501,189.195l-21.94-21.94L422.159,13.657
	c3.124-3.125,3.124-8.189,0-11.314c-3.124-3.122-8.188-3.123-11.314,0L257.246,155.94l-11.656-11.656
	c-4.521-4.521-10.548-7.01-16.972-7.01c-6.423,0-12.45,2.489-16.971,7.01l-5.656,5.656c-6.717,6.717-8.585,16.451-5.659,24.874
	c-75.593,36.5-142.949,66.335-195.204,86.455c-4.015,1.546-6.088,5.988-4.694,10.058c14.684,42.887,39.388,82.499,71.442,114.553
	c32.054,32.055,71.666,56.759,114.553,71.442c0.858,0.294,1.731,0.434,2.592,0.434c3.222,0,6.246-1.96,7.466-5.128
	c20.118-52.25,49.949-119.597,86.443-195.18c2.509,0.87,5.175,1.327,7.915,1.327c6.423,0,12.45-2.489,16.971-7.01l5.656-5.656
	c9.357-9.358,9.357-24.584,0-33.942l-11.656-11.656L455.413,46.911C458.537,43.786,458.537,38.721,455.413,35.596z M210.015,187.906
	l6.193,6.192l-64.645,45.083c-3.624,2.527-4.513,7.514-1.985,11.138c1.555,2.23,4.041,3.425,6.568,3.425
	c1.58,0,3.176-0.467,4.569-1.439l66.984-46.715l6.576,6.576L77.617,368.823c-11.016-11.669-21.021-24.313-29.916-37.7l84.683-59.06
	c3.624-2.527,4.513-7.514,1.985-11.138c-2.526-3.625-7.516-4.515-11.138-1.985l-84.019,58.596
	c-8.267-14.094-15.346-28.881-21.055-44.165C70.364,252.928,136.39,223.517,210.015,187.906z M184.383,439.597
	c-15.283-5.709-30.07-12.788-44.165-21.055l15.016-21.531c2.527-3.624,1.639-8.61-1.985-11.138
	c-3.622-2.529-8.611-1.64-11.138,1.985l-15.479,22.195c-13.387-8.896-26.031-18.9-37.7-29.917l156.657-156.657l6.576,6.576
	l-89.136,127.809c-2.527,3.624-1.639,8.61,1.985,11.138c1.394,0.973,2.989,1.439,4.569,1.439c2.526,0,5.014-1.195,6.568-3.425
	l87.504-125.469l6.193,6.192C234.238,321.365,204.827,387.391,184.383,439.597z M302.157,234.794l-5.656,5.656
	c-1.498,1.499-3.507,2.324-5.656,2.324c-2.15,0-4.159-0.825-5.657-2.324l-33.931-33.931c-0.003-0.003-0.006-0.007-0.009-0.01
	s-0.007-0.006-0.01-0.009l-33.931-33.931c-3.12-3.119-3.12-8.194,0-11.313l5.656-5.656c1.498-1.499,3.507-2.324,5.656-2.324
	c2.15,0,4.159,0.825,5.657,2.324l67.882,67.882C305.277,226.599,305.277,231.674,302.157,234.794z"/>
</svg>
